<svg width="28" height="28" viewBox="0 0 28 28" fill="none" xmlns="http://www.w3.org/2000/svg">
<path d="M18.6666 4.66634C19.7516 4.66634 20.2941 4.66634 20.7392 4.7856C21.947 5.10924 22.8904 6.05265 23.214 7.26048C23.3333 7.70556 23.3333 8.24804 23.3333 9.33301V20.0663C23.3333 22.0265 23.3333 23.0066 22.9518 23.7553C22.6163 24.4139 22.0808 24.9493 21.4223 25.2849C20.6736 25.6663 19.6935 25.6663 17.7333 25.6663H10.2666C8.30644 25.6663 7.32635 25.6663 6.57766 25.2849C5.91909 24.9493 5.38366 24.4139 5.0481 23.7553C4.66663 23.0066 4.66663 22.0265 4.66663 20.0663V9.33301C4.66663 8.24804 4.66663 7.70556 4.78589 7.26048C5.10952 6.05265 6.05294 5.10924 7.26076 4.7856C7.70584 4.66634 8.24833 4.66634 9.33329 4.66634M11.2 6.99967H16.8C17.4534 6.99967 17.7801 6.99968 18.0296 6.87252C18.2491 6.76066 18.4276 6.58219 18.5395 6.36266C18.6666 6.1131 18.6666 5.7864 18.6666 5.13301V4.19967C18.6666 3.54628 18.6666 3.21958 18.5395 2.97002C18.4276 2.7505 18.2491 2.57202 18.0296 2.46017C17.7801 2.33301 17.4534 2.33301 16.8 2.33301H11.2C10.5466 2.33301 10.2199 2.33301 9.9703 2.46017C9.75078 2.57202 9.5723 2.7505 9.46045 2.97002C9.33329 3.21958 9.33329 3.54628 9.33329 4.19967V5.13301C9.33329 5.7864 9.33329 6.1131 9.46045 6.36266C9.5723 6.58219 9.75078 6.76066 9.9703 6.87252C10.2199 6.99968 10.5466 6.99967 11.2 6.99967Z" stroke="#182F3C" stroke-width="2.41667" stroke-linecap="round" stroke-linejoin="round"/>
</svg>
